<svg xmlns="http://www.w3.org/2000/svg" version="1.1" xmlns:xlink="http://www.w3.org/1999/xlink" xmlns:svgjs="http://svgjs.dev/svgjs" width="2000" height="1500" viewBox="0 0 2000 1500"><rect width="2000" height="1500" fill="#ffffff"></rect><g transform="matrix(0.75,0,0,0.75,249.67638483964993,0.05154664723022506)"><svg viewBox="0 0 343 343" data-background-color="#ffffff" preserveAspectRatio="xMidYMid meet" height="1999" width="2000" xmlns="http://www.w3.org/2000/svg" xmlns:xlink="http://www.w3.org/1999/xlink"><g id="tight-bounds" transform="matrix(1,0,0,1,0.0740000000000407,0.07400000000001228)"><svg viewBox="0 0 342.85155851775386 342.85155851775386" height="342.85155851775386" width="342.85155851775386"><g><svg></svg></g><g><svg viewBox="0 0 342.85155851775386 342.85155851775386" height="342.85155851775386" width="342.85155851775386"><g><path d="M0 171.426c0-94.676 76.75-171.426 171.426-171.426 94.676 0 171.426 76.75 171.426 171.426 0 94.676-76.75 171.426-171.426 171.426-94.676 0-171.426-76.75-171.426-171.426zM171.426 341.431c93.891 0 170.006-76.114 170.005-170.005 0-93.891-76.114-170.006-170.005-170.006-93.891 0-170.006 76.114-170.006 170.006 0 93.891 76.114 170.006 170.006 170.005z" data-fill-palette-color="tertiary" fill="#556970" stroke="transparent"></path><ellipse rx="164.56874808852186" ry="164.56874808852186" cx="171.42577925887693" cy="171.42577925887693" fill="#556970" stroke="transparent" stroke-width="0" fill-opacity="1" data-fill-palette-color="tertiary"></ellipse></g><g transform="matrix(1,0,0,1,64.84655864529837,150.8104233206579)"><svg viewBox="0 0 213.1584412271571 41.23071187643811" height="41.23071187643811" width="213.1584412271571"><g><svg viewBox="0 0 213.1584412271571 41.23071187643811" height="41.23071187643811" width="213.1584412271571"><g><svg viewBox="0 0 213.1584412271571 41.23071187643811" height="41.23071187643811" width="213.1584412271571"><g transform="matrix(1,0,0,1,0,25.482234033763525)"><svg viewBox="0 0 213.1584412271571 15.748477842674586" height="15.748477842674586" width="213.1584412271571"><g id="textblocktransform"><svg viewBox="0 0 213.1584412271571 15.748477842674586" height="15.748477842674586" width="213.1584412271571" id="textblock"><g><svg viewBox="0 0 213.1584412271571 15.748477842674586" height="15.748477842674586" width="213.1584412271571"><g transform="matrix(1,0,0,1,0,0)"><svg width="213.1584412271571" viewBox="3.91 -39.28 549.48 40.6" height="15.748477842674586" data-palette-color="#ffffff"><path d="M3.91 0.61L3.91-13.75 5.62-13.75Q6.45-7.69 9.28-5.05L9.28-5.05Q12.79-1.76 18.29-1.76L18.29-1.76Q22.71-1.76 25.42-3.76L25.42-3.76Q28.05-5.71 28.05-8.96L28.05-8.96Q28.05-13.62 20.12-16.85L20.12-16.85 13.35-19.6Q8.74-21.48 6.71-23.8L6.71-23.8Q4.57-26.25 4.57-29.76L4.57-29.76Q4.57-34.11 8.25-36.72L8.25-36.72Q11.4-38.96 16.36-38.96L16.36-38.96Q21.95-38.96 25.42-36.67L25.42-36.67Q26.03-36.25 26.59-36.25L26.59-36.25Q27.56-36.25 27.81-38.35L27.81-38.35 29.57-38.35 29.57-26.95 27.81-26.95Q26.98-31.32 24.41-33.59L24.41-33.59Q21.44-36.25 16.92-36.25L16.92-36.25Q12.94-36.25 10.45-34.4L10.45-34.4Q8.01-32.57 8.01-29.76L8.01-29.76Q8.01-27.29 10.23-25.63L10.23-25.63Q11.82-24.44 14.97-23.19L14.97-23.19 21.51-20.61Q26.66-18.55 29.15-15.97L29.15-15.97Q31.96-13.04 31.96-9.06L31.96-9.06Q31.96-4.42 28.42-1.73L28.42-1.73Q24.9 0.95 18.63 0.95L18.63 0.95Q13.09 0.95 8.72-1.66L8.72-1.66Q8.01-2.05 7.67-2.05L7.67-2.05Q6.1-2.05 5.62 0.61L5.62 0.61 3.91 0.61ZM49.97 0L37.2 0 37.2-1.81Q40.23-1.93 41.09-2.83L41.09-2.83Q41.84-3.64 41.84-5.81L41.84-5.81 41.84-32.67Q41.84-34.81 40.89-35.5L40.89-35.5Q40.06-36.11 37.35-36.21L37.35-36.21 37.35-38.01Q41.79-38.04 45.38-39.01L45.38-39.01 45.38-5.81Q45.38-3.44 46.29-2.66L46.29-2.66Q47.09-1.95 49.97-1.81L49.97-1.81 49.97 0ZM51.61-25.2L51.61-27 63.35-27 63.35-25.2Q59.54-25.05 59.54-23.85L59.54-23.85Q59.54-23.19 60.05-22.05L60.05-22.05 67.7-4.96 74.31-20.9Q74.85-22.22 74.85-23.27L74.85-23.27Q74.85-24.88 70.6-25.2L70.6-25.2 70.6-27 81.81-27 81.81-25.2Q79.95-24.93 78.85-23.73L78.85-23.73Q77.83-22.63 76.95-20.56L76.95-20.56 68.06 0.61 66.21 0.61 56.56-21.41Q55.71-23.34 54.46-24.29L54.46-24.29Q53.44-25.1 51.61-25.2L51.61-25.2ZM100.16-36.18L100.16-37.99 117.3-37.99Q122.5-37.99 125.41-36.5L125.41-36.5Q126.89-35.72 128.04-34.47L128.04-34.47Q130.21-32.13 130.21-29.05L130.21-29.05Q130.21-21.63 120.45-20.51L120.45-20.51 120.45-20.31Q125.62-20.14 128.77-18.07L128.77-18.07Q132.9-15.38 132.9-10.47L132.9-10.47Q132.9-5.71 129.46-3.05L129.46-3.05Q127.99-1.9 125.62-1.1L125.62-1.1Q122.43 0 118.59 0L118.59 0 100.16 0 100.16-1.81Q103.33-2.12 104.21-2.88L104.21-2.88Q105.12-3.69 105.12-5.76L105.12-5.76 105.12-32.25Q105.12-34.45 103.85-35.21L103.85-35.21Q102.82-35.84 100.16-36.18L100.16-36.18ZM108.66-31.84L108.66-21.41 114.71-21.41Q119.25-21.41 122.28-22.92L122.28-22.92Q126.31-24.93 126.31-29.15L126.31-29.15Q126.31-32.89 123.38-34.28L123.38-34.28Q120.84-35.5 116.25-35.5L116.25-35.5 112.54-35.5Q110.39-35.5 109.56-34.74L109.56-34.74Q108.66-33.94 108.66-31.84L108.66-31.84ZM114.71-18.92L108.66-18.92 108.66-6.15Q108.66-3.98 109.61-3.25L109.61-3.25Q110.59-2.51 113.66-2.51L113.66-2.51 116.49-2.51Q121.87-2.51 124.87-3.91L124.87-3.91Q128.9-5.79 128.9-10.47L128.9-10.47Q128.9-15.6 124.06-17.55L124.06-17.55Q120.74-18.92 114.71-18.92L114.71-18.92ZM155.14-17.46L157.24-17.55 157.24-18.31Q157.24-21.88 155.68-23.54L155.68-23.54Q154.87-24.39 153.41-24.98L153.41-24.98Q151.67-25.66 149.82-25.66L149.82-25.66Q146.84-25.66 144.91-24.71L144.91-24.71Q143.93-24.24 143.64-23.66L143.64-23.66Q145.03-23.12 145.03-21.24L145.03-21.24Q145.03-20.34 144.54-19.65L144.54-19.65Q143.79-18.6 142.37-18.6L142.37-18.6Q141.25-18.6 140.49-19.46L140.49-19.46Q139.68-20.39 139.68-21.83L139.68-21.83Q139.68-24.19 142.47-25.98L142.47-25.98Q145.59-28 149.96-28L149.96-28Q154.28-28 157.19-26.12L157.19-26.12Q160.68-23.85 160.68-17.26L160.68-17.26 160.68-6.01Q160.68-2.54 162.24-2.54L162.24-2.54Q163.63-2.54 164.83-5.05L164.83-5.05 166.27-3.2Q164.54 0.9 161.54 0.9L161.54 0.9Q157.6 0.9 157.29-4.35L157.29-4.35Q154.24 0.9 146.74 0.9L146.74 0.9Q142.47 0.9 140.05-2.15L140.05-2.15Q138.39-4.27 138.39-7.2L138.39-7.2Q138.39-11.87 143.05-14.5L143.05-14.5Q147.57-17.09 155.14-17.46L155.14-17.46ZM157.24-8.91L157.24-15.04 155.38-14.94Q148.99-14.6 145.54-12.7L145.54-12.7Q142.25-10.89 142.25-7.4L142.25-7.4Q142.25-5.13 143.47-3.78L143.47-3.78Q144.88-2.2 147.69-2.2L147.69-2.2Q150.45-2.2 152.99-3.52L152.99-3.52Q155.68-4.91 156.75-6.98L156.75-6.98Q157.24-7.96 157.24-8.91L157.24-8.91ZM180.53 0L167.44 0 167.44-1.81Q170.54-1.88 171.35-2.78L171.35-2.78Q172.08-3.59 172.08-5.81L172.08-5.81 172.08-21.66Q172.08-23.73 171.18-24.39L171.18-24.39Q170.35-25.02 167.59-25.2L167.59-25.2 167.59-27Q171.3-27 175.4-28L175.4-28 175.4-22.34Q176.89-24.76 179.87-26.54L179.87-26.54Q182.28-28 185.04-28L185.04-28Q187.02-28 188.27-27L188.27-27Q189.68-25.85 189.68-23.83L189.68-23.83Q189.68-22.63 188.97-21.85L188.97-21.85Q188.19-21 186.9-21L186.9-21Q186.12-21 185.48-21.41L185.48-21.41Q184.21-22.24 184.21-23.75L184.21-23.75Q184.21-24.54 184.73-25.29L184.73-25.29Q182.48-25.24 180.28-23.66L180.28-23.66Q177.4-21.58 175.57-18.36L175.57-18.36 175.57-5.81Q175.57-3.47 176.43-2.71L176.43-2.71Q177.35-1.86 180.53-1.81L180.53-1.81 180.53 0ZM232.94-22.19L245.34-22.19 245.34-20.48Q243.27-20.31 242.29-19.14L242.29-19.14Q241.48-18.16 240.75-15.23L240.75-15.23Q239.21-9.18 235.8-5.05L235.8-5.05Q237.55-3.42 238.77-2.73L238.77-2.73Q239.8-2.17 240.92-2.17L240.92-2.17Q243.75-2.17 245.34-7.25L245.34-7.25 247.1-6.4Q246.22-2.71 244.88-0.9L244.88-0.9Q243.22 1.32 240.58 1.32L240.58 1.32Q238.33 1.32 236.06-0.29L236.06-0.29Q234.94-1.07 233.4-2.54L233.4-2.54Q231.52-0.85 229.84-0.02L229.84-0.02Q227.08 1.32 223.22 1.32L223.22 1.32Q218.17 1.32 214.53-1.1L214.53-1.1Q209.6-4.35 209.6-10.25L209.6-10.25Q209.6-14.99 213.09-18.26L213.09-18.26Q214.99-20.04 218.9-22.24L218.9-22.24Q216-27.73 216-31.25L216-31.25Q216-34.4 217.9-36.57L217.9-36.57Q220.27-39.28 224.44-39.28L224.44-39.28Q226.57-39.28 228.25-38.53L228.25-38.53Q232.16-36.74 232.16-32.25L232.16-32.25Q232.16-28.64 229.13-25.81L229.13-25.81Q227.18-23.97 222.9-21.66L222.9-21.66Q225-18.12 228.01-14.11L228.01-14.11Q231.33-9.72 233.94-6.93L233.94-6.93Q236.16-9.77 237.31-13.26L237.31-13.26Q238.11-15.67 238.11-17.19L238.11-17.19Q238.11-18.85 236.6-19.65L236.6-19.65Q235.48-20.24 232.94-20.48L232.94-20.48 232.94-22.19ZM220.1-20.19L220.1-20.19Q216.7-18.21 215.24-16.24L215.24-16.24Q213.55-13.96 213.55-10.42L213.55-10.42Q213.55-6.4 216.68-3.98L216.68-3.98Q219.66-1.64 224.17-1.64L224.17-1.64Q228.15-1.64 231.45-4.44L231.45-4.44Q229.47-6.67 226.66-10.45L226.66-10.45Q222.83-15.6 220.1-20.19ZM221.76-23.8L221.76-23.8Q224.61-25.54 226.69-27.34L226.69-27.34Q228.76-29.13 228.76-32.15L228.76-32.15Q228.76-34.3 227.69-35.62L227.69-35.62Q226.49-37.08 224.47-37.08L224.47-37.08Q222.34-37.08 220.95-35.69L220.95-35.69Q219.39-34.16 219.39-31.45L219.39-31.45Q219.39-28.42 221.76-23.8ZM267.38-36.18L267.38-37.99 283.81-37.99Q290.04-37.99 293.6-36.33L293.6-36.33Q295.21-35.6 296.22-34.57L296.22-34.57Q298.68-32.06 298.68-28.3L298.68-28.3Q298.68-23.66 294.65-21.19L294.65-21.19Q291.65-19.34 286.33-19.12L286.33-19.12 286.33-18.97Q289.6-18.36 291.31-16.55L291.31-16.55Q292.89-14.87 297.07-6.27L297.07-6.27 297.22-5.96Q298.29-3.76 299.73-2.91L299.73-2.91Q301.12-2.08 303.27-1.76L303.27-1.76 303.27 0 295.48 0Q290.23-12.43 288.16-15.16L288.16-15.16Q285.96-18.07 281.32-18.07L281.32-18.07 275.88-18.07 275.88-5.76Q275.88-3.74 277.07-2.88L277.07-2.88Q278.05-2.17 280.98-1.81L280.98-1.81 280.98 0 267.38 0 267.38-1.81Q270.48-2.15 271.39-2.88L271.39-2.88Q272.34-3.66 272.34-5.76L272.34-5.76 272.34-32.25Q272.34-34.52 271.12-35.3L271.12-35.3Q270.26-35.89 267.38-36.18L267.38-36.18ZM275.88-31.84L275.88-20.56 281.93-20.56Q294.48-20.56 294.48-28.25L294.48-28.25Q294.48-35.5 283.67-35.5L283.67-35.5 279.76-35.5Q277.51-35.5 276.71-34.67L276.71-34.67Q275.88-33.84 275.88-31.84L275.88-31.84ZM332.27-13.77L310.79-13.77 310.79-13.38Q310.79-9.45 312.35-6.59L312.35-6.59Q314.96-1.81 320.38-1.81L320.38-1.81Q326.39-1.81 330.39-7.96L330.39-7.96 331.98-6.37Q327.73 1 320.07 1L320.07 1Q313.33 1 309.64-4.05L309.64-4.05Q306.88-7.84 306.88-13.4L306.88-13.4Q306.88-19.14 309.96-23.17L309.96-23.17Q313.69-28 319.8-28L319.8-28Q324.07-28 327.24-25.59L327.24-25.59Q330.81-22.9 331.88-18.24L331.88-18.24Q332.27-16.55 332.27-14.77L332.27-14.77 332.27-13.77ZM310.89-16.16L328.07-16.16Q327.88-20.31 326.24-22.46L326.24-22.46Q323.83-25.66 319.85-25.66L319.85-25.66Q316.11-25.66 313.47-22.46L313.47-22.46Q311.37-19.92 310.89-16.16L310.89-16.16ZM338.23 0.71L338.23-9.79 339.94-9.79Q341.03-5.4 343.87-3.42L343.87-3.42Q346.82-1.34 349.97-1.34L349.97-1.34Q352.92-1.34 354.78-2.78L354.78-2.78Q356.56-4.15 356.56-6.15L356.56-6.15Q356.56-8.33 354.1-9.89L354.1-9.89Q352.61-10.84 349.77-11.84L349.77-11.84 348.38-12.35Q342.3-14.5 340.52-16.28L340.52-16.28Q338.76-18.04 338.76-20.92L338.76-20.92Q338.76-24.02 341.33-26.07L341.33-26.07Q343.72-28 347.97-28L347.97-28Q351.53-28 354.56-25.76L354.56-25.76Q355.1-25.34 355.66-25.34L355.66-25.34Q356.34-25.34 356.56-27L356.56-27 358.22-27 358.22-18.85 356.32-18.85Q355.49-21.8 353.56-23.61L353.56-23.61Q351.36-25.66 348.07-25.66L348.07-25.66Q345.4-25.66 343.94-24.54L343.94-24.54Q342.33-23.29 342.33-21.22L342.33-21.22Q342.33-19.73 343.74-18.6L343.74-18.6Q344.99-17.65 349.21-16.16L349.21-16.16 350.92-15.55Q356.2-13.7 358.25-11.79L358.25-11.79Q360.42-9.77 360.42-6.37L360.42-6.37Q360.42-2.93 357.56-0.95L357.56-0.95Q354.78 1 350.39 1L350.39 1Q346.36 1 343.23-1.1L343.23-1.1 343.11-1.17Q341.96-1.95 341.64-1.95L341.64-1.95Q340.81-1.95 339.94 0.71L339.94 0.71 338.23 0.71ZM368.62-24.61L362.86-24.61 362.86-26.95Q366.81-27.69 368.64-30.27L368.64-30.27Q369.96-32.15 370.35-35.45L370.35-35.45 372.16-35.45 372.16-27 381.24-27 381.24-24.61 372.16-24.61 372.16-7.86Q372.16-4.96 372.89-3.66L372.89-3.66Q373.77-2.2 375.9-2.2L375.9-2.2Q379.17-2.2 381.24-5.3L381.24-5.3 382.39-3.39Q379.53 0.85 374.92 0.85L374.92 0.85Q371.21 0.85 369.62-2.22L369.62-2.22Q368.62-4.17 368.62-7.5L368.62-7.5 368.62-24.61ZM402.97-17.46L405.07-17.55 405.07-18.31Q405.07-21.88 403.51-23.54L403.51-23.54Q402.7-24.39 401.23-24.98L401.23-24.98Q399.5-25.66 397.65-25.66L397.65-25.66Q394.67-25.66 392.74-24.71L392.74-24.71Q391.76-24.24 391.47-23.66L391.47-23.66Q392.86-23.12 392.86-21.24L392.86-21.24Q392.86-20.34 392.37-19.65L392.37-19.65Q391.62-18.6 390.2-18.6L390.2-18.6Q389.08-18.6 388.32-19.46L388.32-19.46Q387.51-20.39 387.51-21.83L387.51-21.83Q387.51-24.19 390.3-25.98L390.3-25.98Q393.42-28 397.79-28L397.79-28Q402.11-28 405.02-26.12L405.02-26.12Q408.51-23.85 408.51-17.26L408.51-17.26 408.51-6.01Q408.51-2.54 410.07-2.54L410.07-2.54Q411.46-2.54 412.66-5.05L412.66-5.05 414.1-3.2Q412.37 0.9 409.36 0.9L409.36 0.9Q405.43 0.9 405.12-4.35L405.12-4.35Q402.06 0.9 394.57 0.9L394.57 0.9Q390.3 0.9 387.88-2.15L387.88-2.15Q386.22-4.27 386.22-7.2L386.22-7.2Q386.22-11.87 390.88-14.5L390.88-14.5Q395.4-17.09 402.97-17.46L402.97-17.46ZM405.07-8.91L405.07-15.04 403.21-14.94Q396.82-14.6 393.37-12.7L393.37-12.7Q390.08-10.89 390.08-7.4L390.08-7.4Q390.08-5.13 391.3-3.78L391.3-3.78Q392.71-2.2 395.52-2.2L395.52-2.2Q398.28-2.2 400.82-3.52L400.82-3.52Q403.51-4.91 404.58-6.98L404.58-6.98Q405.07-7.96 405.07-8.91L405.07-8.91ZM445.47 0L438.83 0 438.32-3.96Q434.34 1 429.14 1L429.14 1Q423.67 1 421.23-3.37L421.23-3.37Q419.76-5.98 419.76-10.01L419.76-10.01 419.76-21.66Q419.76-23.88 418.86-24.51L418.86-24.51Q418.1-25.02 415.27-25.2L415.27-25.2 415.27-27Q419.25-27.03 423.25-28L423.25-28 423.25-10.21Q423.25-6.08 425.21-3.86L425.21-3.86Q426.92-1.9 429.89-1.9L429.89-1.9Q434.65-1.9 438.07-7.5L438.07-7.5 438.07-21.66Q438.07-23.95 437.07-24.56L437.07-24.56Q436.34-25.02 433.61-25.2L433.61-25.2 433.61-27Q438.02-27.03 441.61-28L441.61-28 441.61-6.54Q441.61-3.74 442.44-2.76L442.44-2.76Q443.1-1.98 445.47-1.81L445.47-1.81 445.47 0ZM460.36 0L447.27 0 447.27-1.81Q450.38-1.88 451.18-2.78L451.18-2.78Q451.91-3.59 451.91-5.81L451.91-5.81 451.91-21.66Q451.91-23.73 451.01-24.39L451.01-24.39Q450.18-25.02 447.42-25.2L447.42-25.2 447.42-27Q451.13-27 455.23-28L455.23-28 455.23-22.34Q456.72-24.76 459.7-26.54L459.7-26.54Q462.12-28 464.88-28L464.88-28Q466.85-28 468.1-27L468.1-27Q469.52-25.85 469.52-23.83L469.52-23.83Q469.52-22.63 468.81-21.85L468.81-21.85Q468.03-21 466.73-21L466.73-21Q465.95-21 465.32-21.41L465.32-21.41Q464.05-22.24 464.05-23.75L464.05-23.75Q464.05-24.54 464.56-25.29L464.56-25.29Q462.31-25.24 460.12-23.66L460.12-23.66Q457.24-21.58 455.4-18.36L455.4-18.36 455.4-5.81Q455.4-3.47 456.26-2.71L456.26-2.71Q457.19-1.86 460.36-1.81L460.36-1.81 460.36 0ZM488.97-17.46L491.07-17.55 491.07-18.31Q491.07-21.88 489.51-23.54L489.51-23.54Q488.7-24.39 487.24-24.98L487.24-24.98Q485.5-25.66 483.65-25.66L483.65-25.66Q480.67-25.66 478.74-24.71L478.74-24.71Q477.77-24.24 477.47-23.66L477.47-23.66Q478.86-23.12 478.86-21.24L478.86-21.24Q478.86-20.34 478.38-19.65L478.38-19.65Q477.62-18.6 476.2-18.6L476.2-18.6Q475.08-18.6 474.32-19.46L474.32-19.46Q473.52-20.39 473.52-21.83L473.52-21.83Q473.52-24.19 476.3-25.98L476.3-25.98Q479.43-28 483.8-28L483.8-28Q488.12-28 491.02-26.12L491.02-26.12Q494.51-23.85 494.51-17.26L494.51-17.26 494.51-6.01Q494.51-2.54 496.08-2.54L496.08-2.54Q497.47-2.54 498.66-5.05L498.66-5.05 500.1-3.2Q498.37 0.9 495.37 0.9L495.37 0.9Q491.44 0.9 491.12-4.35L491.12-4.35Q488.07 0.9 480.57 0.9L480.57 0.9Q476.3 0.9 473.88-2.15L473.88-2.15Q472.22-4.27 472.22-7.2L472.22-7.2Q472.22-11.87 476.89-14.5L476.89-14.5Q481.4-17.09 488.97-17.46L488.97-17.46ZM491.07-8.91L491.07-15.04 489.22-14.94Q482.82-14.6 479.38-12.7L479.38-12.7Q476.08-10.89 476.08-7.4L476.08-7.4Q476.08-5.13 477.3-3.78L477.3-3.78Q478.72-2.2 481.52-2.2L481.52-2.2Q484.28-2.2 486.82-3.52L486.82-3.52Q489.51-4.91 490.58-6.98L490.58-6.98Q491.07-7.96 491.07-8.91L491.07-8.91ZM513.99 0L501.71 0 501.71-1.81Q504.52-1.93 505.4-2.76L505.4-2.76Q506.3-3.59 506.3-5.81L506.3-5.81 506.3-21.66Q506.3-23.83 505.35-24.51L505.35-24.51Q504.64-25 501.86-25.2L501.86-25.2 501.86-27Q506.21-27 509.79-28L509.79-28 509.79-23.24Q511.41-25.49 513.97-26.83L513.97-26.83Q516.24-28 518.53-28L518.53-28Q523.2-28 525.93-24.63L525.93-24.63Q528.15-21.88 528.15-16.99L528.15-16.99 528.15-5.81Q528.15-3.47 529.08-2.69L529.08-2.69Q529.94-1.95 532.79-1.81L532.79-1.81 532.79 0 520.41 0 520.41-1.81Q522.95-1.95 523.86-2.76L523.86-2.76Q524.66-3.47 524.66-5.81L524.66-5.81 524.66-17.14Q524.66-20.78 522.86-22.97L522.86-22.97Q521.12-25.1 518.22-25.1L518.22-25.1Q513.63-25.1 509.79-19.51L509.79-19.51 509.79-5.81Q509.79-3.52 510.65-2.76L510.65-2.76Q511.5-1.98 513.99-1.81L513.99-1.81 513.99 0ZM539.63-24.61L533.86-24.61 533.86-26.95Q537.82-27.69 539.65-30.27L539.65-30.27Q540.97-32.15 541.36-35.45L541.36-35.45 543.17-35.45 543.17-27 552.25-27 552.25-24.61 543.17-24.61 543.17-7.86Q543.17-4.96 543.9-3.66L543.9-3.66Q544.78-2.2 546.9-2.2L546.9-2.2Q550.17-2.2 552.25-5.3L552.25-5.3 553.39-3.39Q550.54 0.85 545.92 0.85L545.92 0.85Q542.21 0.85 540.63-2.22L540.63-2.22Q539.63-4.17 539.63-7.5L539.63-7.5 539.63-24.61Z" opacity="1" transform="matrix(1,0,0,1,0,0)" fill="#ffffff" class="wordmark-text-0" data-fill-palette-color="quaternary" id="text-0"></path></svg></g></svg></g></svg></g></svg></g><g transform="matrix(1,0,0,1,99.27284294767583,0)"><svg viewBox="0 0 14.612755331805472 21.76439637857628" height="21.76439637857628" width="14.612755331805472"><g><svg xmlns="http://www.w3.org/2000/svg" xmlns:xlink="http://www.w3.org/1999/xlink" version="1.1" x="0" y="0" viewBox="16.43001359733093 0.00024605647165804045 67.14027729297868 99.99945765131525" enable-background="new 0 0 100 100" xml:space="preserve" height="21.76439637857628" width="14.612755331805472" class="icon-icon-0" data-fill-palette-color="quaternary" id="icon-0"><g fill="#ffffff" data-fill-palette-color="quaternary"><path fill-rule="evenodd" clip-rule="evenodd" d="M82.64 91.498L53.633 48.559 59.604 37.466H67.281C67.843 37.466 68.415 36.895 68.986 36.323L83.212 11.591C84.338 9.029 81.214 7.888 80.079 9.878L67.28 30.646C65.575 33.208 61.594 31.217 63.862 27.792L76.098 6.746C77.232 4.756 74.385 2.766 72.688 5.326L60.452 25.801C58.462 29.227 55.053 26.094 56.472 24.104L68.414 3.059C69.834 0.497 66.994-1.215 65.852 1.069L50.786 24.952C50.215 26.094 50.215 26.665 50.501 26.942L54.481 34.055 49.359 41.739 44.244 34.333S51.642 25.523 41.397 13.858C31.445 1.917 22.913-1.771 18.933 1.068 15.801 3.336 14.667 14.429 21.209 26.942 27.75 39.749 36.846 38.036 39.13 37.759L45.101 48.281 17.514 91.221C14.952 95.201 17.514 98.04 19.218 98.889 20.923 99.753 24.626 100.879 27.18 96.05L49.36 55.949 73.822 97.47C75.241 99.753 78.366 100.879 80.649 99.182 81.783 98.333 85.201 95.479 82.64 91.498" fill="#ffffff" data-fill-palette-color="quaternary"></path></g></svg></g></svg></g><g></g></svg></g></svg></g></svg></g></svg></g><defs></defs></svg><rect width="342.85155851775386" height="342.85155851775386" fill="none" stroke="none" visibility="hidden"></rect></g></svg></g></svg>